<?xml version="1.0" standalone="no"?>
<!DOCTYPE svg PUBLIC "-//W3C//DTD SVG 1.1//EN" "http://www.w3.org/Graphics/SVG/1.1/DTD/svg11.dtd" >
<svg>
<metadata>
Created by FontForge 20090914 at Fri Apr  4 23:05:18 2014
 By www-data
&#194;&#169;2001 | Max Remix
</metadata>
<defs>
<font id="PixelArial11" horiz-adv-x="750" >
  <font-face 
    font-family="Pixel Arial 11"
    font-weight="400"
    font-stretch="normal"
    units-per-em="1000"
    panose-1="0 0 4 0 0 0 0 0 0 0"
    ascent="800"
    descent="-200"
    x-height="750"
    cap-height="1000"
    bbox="-125 -250 2875 1250"
    underline-thickness="20"
    underline-position="-123"
    unicode-range="U+0020-U+F002"
  />
<missing-glyph horiz-adv-x="500" 
d="M63 0v1125h375v-1125h-375zM125 63h250v1000h-250v-1000z" />
    <glyph glyph-name=".notdef" horiz-adv-x="500" 
d="M63 0v1125h375v-1125h-375zM125 63h250v1000h-250v-1000z" />
    <glyph glyph-name="space" unicode=" " horiz-adv-x="375" 
 />
    <glyph glyph-name="exclam" unicode="!" horiz-adv-x="250" 
d="M0 1000h125v-750h-125v750zM0 125h125v-125h-125v125z" />
    <glyph glyph-name="quotedbl" unicode="&#x22;" horiz-adv-x="500" 
d="M0 1000h125v-375h-125v375zM250 1000h125v-375h-125v375z" />
    <glyph glyph-name="numbersign" unicode="#" 
d="M0 750h625v-125h-625v125zM250 1000h125v-250h-125v250zM500 1000h125v-250h-125v250zM125 625h125v-250h-125v250zM0 375h500v-125h-500v125zM375 625h125v-250h-125v250zM250 250h125v-250h-125v250zM0 250h125v-250h-125v250zM500 375h125v-125h-125v125z" />
    <glyph glyph-name="dollar" unicode="$" 
d="M125 1000h375v-125h-375v125zM0 875h135v-250h-135v250zM500 875h125v-125h-125v125zM125 625h375v-125h-375v125zM495 500h130v-375h-130v375zM125 125h375v-125h-375v125zM0 250h125v-125h-125v125zM250 0h125v-125h-125v125zM250 500h125v-375h-125v375zM250 875h125
v-250h-125v250z" />
    <glyph glyph-name="percent" unicode="%" horiz-adv-x="1250" 
d="M125 1000h250v-125h-250v125zM0 875h130v-250h-130v250zM125 625h250v-125h-250v125zM370 875h130v-250h-130v250zM250 125h125v-125h-125v125zM375 375h125v-250h-125v250zM500 625h125v-250h-125v250zM625 875h125v-250h-125v250zM750 1000h125v-125h-125v125zM625 375
h130v-250h-130v250zM750 125h250v-125h-250v125zM995 375h130v-250h-130v250zM750 500h250v-125h-250v125z" />
    <glyph glyph-name="ampersand" unicode="&#x26;" horiz-adv-x="875" 
d="M500 130v240h-125v125h-125v-125h-125v-240h375zM250 870v-240h250v240h-250zM125 875h125v125h250v-125h125v-250h-125v-250h250v-125h-125v-125h125v-125h-125v125h-125v-125h-375v125h-125v250h125v125h125v125h-125v250z" />
    <glyph glyph-name="quotesingle" unicode="'" horiz-adv-x="250" 
d="M0 1000h125v-375h-125v375z" />
    <glyph glyph-name="parenleft" unicode="(" horiz-adv-x="500" 
d="M250 1000h125v-125h-125v125zM125 875h125v-125h-125v125zM0 750h125v-750h-125v750zM125 0h125v-125h-125v125zM250 -125h125v-125h-125v125z" />
    <glyph glyph-name="parenright" unicode=")" horiz-adv-x="500" 
d="M125 1000h-125v-125h125v125zM250 875h-125v-125h125v125zM375 750h-125v-750h125v750zM250 0h-125v-125h125v125zM125 -125h-125v-125h125v125z" />
    <glyph glyph-name="asterisk" unicode="*" horiz-adv-x="500" 
d="M125 1000h125v-125h-125v125zM0 875h375v-125h-375v125zM125 750h125v-125h-125v125zM0 625h125v-125h-125v125zM250 625h125v-125h-125v125z" />
    <glyph glyph-name="plus" unicode="+" 
d="M250 750h125v-250h-125v250zM0 500h625v-125h-625v125zM250 375h125v-250h-125v250z" />
    <glyph glyph-name="comma" unicode="," horiz-adv-x="250" 
d="M0 125h125v-375h-125v375z" />
    <glyph glyph-name="hyphen" unicode="-" horiz-adv-x="500" 
d="M0 375h375v-125h-375v125z" />
    <glyph glyph-name="hyphen" unicode="&#x2010;" horiz-adv-x="500" 
d="M0 375h375v-125h-375v125z" />
    <glyph glyph-name="period" unicode="." horiz-adv-x="250" 
d="M0 125h125v-125h-125v125z" />
    <glyph glyph-name="slash" unicode="/" horiz-adv-x="500" 
d="M0 250h125v-250h-125v250zM125 750h125v-500h-125v500zM250 1000h125v-250h-125v250z" />
    <glyph glyph-name="zero" unicode="0" 
d="M0 875h130v-750h-130v750zM125 125h375v-125h-375v125zM495 875h130v-750h-130v750zM125 1000h375v-125h-375v125z" />
    <glyph glyph-name="one" unicode="1" horiz-adv-x="625" 
d="M0 750h125v-125h-125v125zM125 875h125v-125h-125v125zM250 1000h125v-1000h-125v1000z" />
    <glyph glyph-name="two" unicode="2" horiz-adv-x="751" 
d="M375 500h125v-125h-125v125zM0 125h625v-125h-625v125zM500 875h125v-375h-125v375zM125 1000h375v-125h-375v125zM250 375h125v-125h-125v125zM125 250h125v-125h-125v125zM0 875h125v-125h-125v125z" />
    <glyph glyph-name="three" unicode="3" 
d="M0 875h125v-125h-125v125zM125 625h375v-125h-375v125zM500 875h125v-250h-125v250zM125 1000h375v-125h-375v125zM500 500h125v-375h-125v375zM125 125h375v-125h-375v125zM0 250h125v-125h-125v125z" />
    <glyph glyph-name="four" unicode="4" 
d="M255 750v-250h-125v-125h245v375h-120zM125 750h125v125h125v125h125v-625h125v-125h-125v-250h-125v250h-375v250h125v250z" />
    <glyph glyph-name="five" unicode="5" 
d="M0 250h125v-125h-125v125zM125 125h375v-125h-375v125zM500 500h125v-375h-125v375zM0 625h500v-125h-500v125zM0 750h125v-125h-125v125zM125 875h125v-125h-125v125zM125 1000h500v-125h-500v125z" />
    <glyph glyph-name="six" unicode="6" 
d="M0 875h125v-750h-125v750zM120 125h385v-125h-385v125zM500 875h125v-125h-125v125zM125 1000h375v-125h-375v125zM500 500h125v-375h-125v375zM125 625h380v-125h-380v125z" />
    <glyph glyph-name="seven" unicode="7" 
d="M0 1000h625v-125h-625v125zM375 875h125v-250h-125v250zM250 625h125v-250h-125v250zM125 375h125v-375h-125v375z" />
    <glyph glyph-name="eight" unicode="8" 
d="M0 875h125v-250h-125v250zM125 130h375v-130h-375v130zM500 875h125v-250h-125v250zM125 1000h375v-130h-375v130zM125 630h375v-135h-375v135zM0 500h125v-375h-125v375zM500 500h125v-375h-125v375z" />
    <glyph glyph-name="nine" unicode="9" 
d="M0 875h125v-375h-125v375zM125 130h375v-130h-375v130zM500 875h125v-750h-125v750zM125 1000h375v-130h-375v130zM125 505h375v-135h-375v135zM0 250h125v-125h-125v125z" />
    <glyph glyph-name="colon" unicode=":" horiz-adv-x="250" 
d="M0 750h125v-125h-125v125zM0 125h125v-125h-125v125z" />
    <glyph glyph-name="semicolon" unicode=";" horiz-adv-x="250" 
d="M0 750h125v-125h-125v125zM0 125h125v-375h-125v375z" />
    <glyph glyph-name="less" unicode="&#x3c;" 
d="M0 500h125v-125h-125v125zM125 375h375v-125h-375v125zM500 250h125v-125h-125v125zM125 625h375v-125h-375v125zM500 750h125v-125h-125v125z" />
    <glyph glyph-name="equal" unicode="=" 
d="M0 625h625v-125h-625v125zM0 375h625v-125h-625v125z" />
    <glyph glyph-name="greater" unicode="&#x3e;" 
d="M625 500h-125v-125h125v125zM500 375h-375v-125h375v125zM125 250h-125v-125h125v125zM500 625h-375v-125h375v125zM125 750h-125v-125h125v125z" />
    <glyph glyph-name="question" unicode="?" 
d="M0 875h125v-125h-125v125zM125 1000h375v-125h-375v125zM500 875h125v-250h-125v250zM375 625h125v-125h-125v125zM250 500h125v-250h-125v250zM250 125h125v-125h-125v125z" />
    <glyph glyph-name="at" unicode="@" horiz-adv-x="1375" 
d="M0 625h125v-625h-125v625zM250 -125h875v-125h-875v125zM1125 0h125v-125h-125v125zM250 500h130v-375h-130v375zM375 125h250v-125h-250v125zM620 250h130v-125h-130v125zM745 625h130v-625h-130v625zM375 625h130v-125h-130v125zM500 750h250v-125h-250v125zM875 750
h130v-250h-130v250zM1000 875h125v-125h-125v125zM1120 750h130v-500h-130v500zM995 250h130v-125h-130v125zM125 0h125v-125h-125v125zM875 125h125v-125h-125v125zM125 875h125v-250h-125v250zM250 875h125v-125h-125v125zM375 1000h625v-125h-625v125z" />
    <glyph glyph-name="A" unicode="A" horiz-adv-x="1000" 
d="M0 250h125v-250h-125v250zM125 500h130v-250h-130v250zM250 875h130v-375h-130v375zM375 1000h125v-125h-125v125zM495 875h130v-375h-130v375zM620 500h130v-250h-130v250zM750 250h125v-250h-125v250zM250 375h375v-125h-375v125z" />
    <glyph glyph-name="B" unicode="B" horiz-adv-x="875" 
d="M0 1000h125v-1000h-125v1000zM125 1000h500v-125h-500v125zM620 875h130v-750h-130v750zM125 125h500v-125h-500v125zM125 625h500v-125h-500v125z" />
    <glyph glyph-name="C" unicode="C" horiz-adv-x="875" 
d="M250 125h375v-125h-375v125zM125 250h125v-125h-125v125zM0 750h125v-500h-125v500zM125 875h125v-125h-125v125zM250 1000h375v-125h-375v125zM625 875h125v-125h-125v125zM625 250h125v-125h-125v125z" />
    <glyph glyph-name="D" unicode="D" horiz-adv-x="875" 
d="M0 1000h125v-1000h-125v1000zM125 1000h375v-125h-375v125zM495 875h130v-125h-130v125zM620 750h130v-500h-130v500zM495 250h130v-125h-130v125zM125 125h375v-125h-375v125z" />
    <glyph glyph-name="E" unicode="E" 
d="M0 1000h125v-1000h-125v1000zM125 125h500v-125h-500v125zM125 1000h500v-125h-500v125zM125 625h500v-125h-500v125z" />
    <glyph glyph-name="F" unicode="F" 
d="M0 1000h125v-1000h-125v1000zM125 1000h500v-125h-500v125zM125 625h375v-125h-375v125z" />
    <glyph glyph-name="G" unicode="G" horiz-adv-x="1000" 
d="M250 125h375v-125h-375v125zM125 250h125v-125h-125v125zM0 750h125v-500h-125v500zM125 875h125v-125h-125v125zM250 1000h375v-125h-375v125zM625 875h125v-125h-125v125zM625 250h125v-125h-125v125zM750 750h125v-125h-125v125zM750 375h125v-125h-125v125zM750 500
h125v-125h-125v125zM500 500h250v-125h-250v125z" />
    <glyph glyph-name="H" unicode="H" horiz-adv-x="875" 
d="M0 1000h125v-1000h-125v1000zM125 625h500v-125h-500v125zM625 1000h125v-1000h-125v1000z" />
    <glyph glyph-name="I" unicode="I" horiz-adv-x="250" 
d="M0 1000h125v-1000h-125v1000z" />
    <glyph glyph-name="J" unicode="J" horiz-adv-x="625" 
d="M0 375h125v-250h-125v250zM125 125h250v-125h-250v125zM375 1000h125v-875h-125v875z" />
    <glyph glyph-name="K" unicode="K" horiz-adv-x="875" 
d="M625 125h125v-125h-125v125h-125v250h-125v125h-125v-125h-125v-375h-125v1000h125v-500h125v125h125v125h125v125h125v125h125v-125h-125v-125h-125v-375h125v-250z" />
    <glyph glyph-name="L" unicode="L" 
d="M0 1000h125v-1000h-125v1000zM125 125h500v-125h-500v125z" />
    <glyph glyph-name="M" unicode="M" horiz-adv-x="1000" 
d="M0 1000h125v-1000h-125v1000zM125 875h125v-250h-125v250zM250 625h125v-375h-125v375zM375 250h125v-250h-125v250zM500 625h125v-375h-125v375zM625 875h125v-250h-125v250zM750 1000h125v-1000h-125v1000z" />
    <glyph glyph-name="N" unicode="N" horiz-adv-x="875" 
d="M0 1000h125v-1000h-125v1000zM125 875h125v-125h-125v125zM250 750h125v-250h-125v250zM375 500h125v-250h-125v250zM500 250h125v-125h-125v125zM625 1000h125v-1000h-125v1000z" />
    <glyph glyph-name="O" unicode="O" horiz-adv-x="1000" 
d="M0 750h130v-500h-130v500zM125 875h130v-125h-130v125zM125 250h130v-125h-130v125zM250 125h375v-125h-375v125zM620 250h130v-125h-130v125zM745 750h130v-500h-130v500zM620 875h130v-125h-130v125zM250 1000h375v-125h-375v125z" />
    <glyph glyph-name="P" unicode="P" 
d="M0 1000h125v-1000h-125v1000zM125 1000h375v-125h-375v125zM495 875h130v-375h-130v375zM125 500h375v-125h-375v125z" />
    <glyph glyph-name="Q" unicode="Q" horiz-adv-x="1000" 
d="M0 750h130v-500h-130v500zM125 875h130v-125h-130v125zM125 250h130v-125h-130v125zM250 125h375v-125h-375v125zM620 250h130v-125h-130v125zM745 750h130v-500h-130v500zM620 875h130v-125h-130v125zM250 1000h375v-125h-375v125zM750 125h125v-125h-125v125zM375 375
h250v-125h-250v125z" />
    <glyph glyph-name="R" unicode="R" horiz-adv-x="875" 
d="M0 1000h125v-1000h-125v1000zM125 1000h500v-125h-500v125zM620 875h130v-250h-130v250zM125 625h500v-125h-500v125zM375 500h125v-125h-125v125zM500 375h125v-250h-125v250zM625 125h125v-125h-125v125z" />
    <glyph glyph-name="S" unicode="S" horiz-adv-x="875" 
d="M0 875h125v-250h-125v250zM125 1000h500v-125h-500v125zM625 875h125v-125h-125v125zM125 625h250v-125h-250v125zM375 500h250v-125h-250v125zM625 375h125v-250h-125v250zM0 250h125v-125h-125v125zM125 125h500v-125h-500v125z" />
    <glyph glyph-name="T" unicode="T" 
d="M0 1000h625v-125h-625v125zM250 875h125v-875h-125v875z" />
    <glyph glyph-name="U" unicode="U" horiz-adv-x="875" 
d="M0 1000h125v-875h-125v875zM125 125h500v-125h-500v125zM625 1000h125v-875h-125v875z" />
    <glyph glyph-name="V" unicode="V" horiz-adv-x="1000" 
d="M0 1000h125v-250h-125v250zM125 750h125v-250h-125v250zM250 500h125v-250h-125v250zM375 250h125v-250h-125v250zM500 500h125v-250h-125v250zM625 750h125v-250h-125v250zM750 1000h125v-250h-125v250z" />
    <glyph glyph-name="W" unicode="W" horiz-adv-x="1250" 
d="M-125 1000h125v-250h-125v250zM0 750h125v-500h-125v500zM125 250h125v-250h-125v250zM250 500h125v-250h-125v250zM375 875h125v-375h-125v375zM500 1000h125v-125h-125v125zM625 875h125v-375h-125v375zM750 500h125v-250h-125v250zM875 250h125v-250h-125v250z
M1000 750h125v-500h-125v500zM1125 1000h125v-250h-125v250z" />
    <glyph glyph-name="X" unicode="X" horiz-adv-x="875" 
d="M0 1000h125v-125h-125v125zM125 875h125v-250h-125v250zM250 625h250v-250h-250v250zM125 375h125v-250h-125v250zM0 125h125v-125h-125v125zM500 375h125v-250h-125v250zM625 125h125v-125h-125v125zM500 875h125v-250h-125v250zM625 1000h125v-125h-125v125z" />
    <glyph glyph-name="Y" unicode="Y" horiz-adv-x="1000" 
d="M0 1000h125v-125h-125v125zM125 875h125v-250h-125v250zM250 625h125v-125h-125v125zM375 500h125v-500h-125v500zM500 625h125v-125h-125v125zM625 875h125v-250h-125v250zM750 1000h125v-125h-125v125z" />
    <glyph glyph-name="Z" unicode="Z" horiz-adv-x="875" 
d="M0 125h750v-125h-750v125zM125 250h125v-125h-125v125zM250 500h125v-250h-125v250zM375 750h125v-250h-125v250zM500 875h125v-125h-125v125zM125 1000h625v-125h-625v125z" />
    <glyph glyph-name="bracketleft" unicode="[" horiz-adv-x="375" 
d="M125 -125h125v-125h-250v1250h250v-125h-125v-1000z" />
    <glyph glyph-name="backslash" unicode="\" horiz-adv-x="500" 
d="M0 1000h125v-250h-125v250zM125 750h125v-500h-125v500zM250 250h125v-250h-125v250z" />
    <glyph glyph-name="bracketright" unicode="]" horiz-adv-x="375" 
d="M125 -125h-125v-125h250v1250h-250v-125h125v-1000z" />
    <glyph glyph-name="asciicircum" unicode="^" 
d="M250 1000h125v-125h-125v125zM125 875h125v-250h-125v250zM0 625h125v-125h-125v125zM375 875h125v-250h-125v250zM500 625h125v-125h-125v125z" />
    <glyph glyph-name="underscore" unicode="_" horiz-adv-x="875" 
d="M0 -125h750v-125h-750v125z" />
    <glyph glyph-name="grave" unicode="`" horiz-adv-x="500" 
d="M0 1000h125v-125h-125v125zM125 875h125v-125h-125v125z" />
    <glyph glyph-name="a" unicode="a" 
d="M0 375h125v-250h-125v250zM125 130h250v-130h-250v130zM375 250h125v-125h-125v125zM500 625h125v-625h-125v625zM125 505h375v-135h-375v135zM0 625h125v-125h-125v125zM125 750h375v-130h-375v130z" />
    <glyph glyph-name="b" unicode="b" 
d="M0 1000h125v-1000h-125v1000zM125 250h130v-125h-130v125zM250 125h250v-125h-250v125zM495 625h130v-500h-130v500zM250 750h250v-125h-250v125zM125 625h130v-125h-130v125z" />
    <glyph glyph-name="c" unicode="c" 
d="M0 625h125v-500h-125v500zM125 125h375v-125h-375v125zM500 250h125v-125h-125v125zM125 750h375v-125h-375v125zM500 625h125v-125h-125v125z" />
    <glyph glyph-name="d" unicode="d" 
d="M625 1000h-125v-1000h125v1000zM500 250h-130v-125h130v125zM375 125h-250v-125h250v125zM130 625h-130v-500h130v500zM375 750h-250v-125h250v125zM500 625h-130v-125h130v125z" />
    <glyph glyph-name="e" unicode="e" 
d="M0 625h125v-500h-125v500zM125 125h375v-125h-375v125zM500 250h125v-125h-125v125zM125 750h375v-130h-375v130zM500 625h125v-125h-125v125zM125 500h500v-125h-500v125z" />
    <glyph glyph-name="f" unicode="f" horiz-adv-x="500" 
d="M125 875h125v-875h-125v875zM250 1000h125v-125h-125v125zM0 750h375v-125h-375v125z" />
    <glyph glyph-name="g" unicode="g" 
d="M0 625h125v-500h-125v500zM125 130h250v-130h-250v130zM375 250h125v-125h-125v125zM125 750h250v-130h-250v130zM375 625h125v-125h-125v125zM500 750h125v-875h-125v875zM0 -125h500v-125h-500v125z" />
    <glyph glyph-name="h" unicode="h" 
d="M0 1000h125v-1000h-125v1000zM125 625h125v-125h-125v125zM250 750h250v-125h-250v125zM500 625h125v-625h-125v625z" />
    <glyph glyph-name="i" unicode="i" horiz-adv-x="250" 
d="M0 750h125v-750h-125v750zM0 1000h125v-125h-125v125z" />
    <glyph glyph-name="j" unicode="j" horiz-adv-x="250" 
d="M0 750h125v-875h-125v875zM0 1000h125v-125h-125v125zM-125 -125h125v-125h-125v125z" />
    <glyph glyph-name="k" unicode="k" horiz-adv-x="625" 
d="M0 1000h125v-1000h-125v1000zM125 500h125v-125h-125v125zM250 375h125v-250h-125v250zM375 125h125v-125h-125v125zM250 625h125v-125h-125v125zM375 750h125v-125h-125v125z" />
    <glyph glyph-name="l" unicode="l" horiz-adv-x="250" 
d="M0 1000h125v-1000h-125v1000z" />
    <glyph glyph-name="m" unicode="m" horiz-adv-x="1000" 
d="M0 750h125v-750h-125v750zM125 625h125v-125h-125v125zM250 750h500v-125h-500v125zM750 625h125v-625h-125v625zM375 625h125v-625h-125v625z" />
    <glyph glyph-name="n" unicode="n" 
d="M0 750h125v-750h-125v750zM125 750h375v-125h-375v125zM500 625h125v-625h-125v625z" />
    <glyph glyph-name="o" unicode="o" 
d="M0 625h125v-500h-125v500zM125 130h375v-130h-375v130zM500 625h125v-500h-125v500zM125 750h375v-130h-375v130z" />
    <glyph glyph-name="p" unicode="p" 
d="M625 625h-125v-500h125v500zM500 130h-250v-130h250v130zM250 250h-125v-125h125v125zM500 750h-250v-130h250v130zM250 625h-125v-125h125v125zM125 750h-125v-1000h125v1000z" />
    <glyph glyph-name="q" unicode="q" 
d="M0 625h125v-500h-125v500zM125 130h250v-130h-250v130zM375 250h125v-125h-125v125zM125 750h250v-130h-250v130zM375 625h125v-125h-125v125zM500 750h125v-1000h-125v1000z" />
    <glyph glyph-name="r" unicode="r" horiz-adv-x="500" 
d="M0 750h125v-750h-125v750zM125 625h125v-125h-125v125zM250 750h125v-125h-125v125z" />
    <glyph glyph-name="s" unicode="s" 
d="M0 250h125v-125h-125v125zM125 125h375v-125h-375v125zM500 250h125v-125h-125v125zM375 375h125v-125h-125v125zM125 500h250v-125h-250v125zM0 625h125v-125h-125v125zM125 750h375v-125h-375v125zM500 625h125v-125h-125v125z" />
    <glyph glyph-name="t" unicode="t" horiz-adv-x="375" 
d="M0 1000h125v-1000h-125v1000zM125 125h125v-125h-125v125zM-125 750h375v-125h-375v125z" />
    <glyph glyph-name="u" unicode="u" 
d="M0 750h125v-625h-125v625zM125 125h250v-125h-250v125zM375 250h125v-125h-125v125zM500 750h125v-750h-125v750z" />
    <glyph glyph-name="v" unicode="v" 
d="M0 750h125v-250h-125v250zM125 500h125v-250h-125v250zM250 250h125v-250h-125v250zM375 500h125v-250h-125v250zM500 750h125v-250h-125v250z" />
    <glyph glyph-name="w" unicode="w" horiz-adv-x="1250" 
d="M0 750h125v-250h-125v250zM125 500h125v-250h-125v250zM250 250h125v-250h-125v250zM375 625h125v-375h-125v375zM500 750h125v-125h-125v125zM625 625h125v-375h-125v375zM750 250h125v-250h-125v250zM875 500h125v-250h-125v250zM1000 750h125v-250h-125v250z" />
    <glyph glyph-name="x" unicode="x" 
d="M0 750h125v-125h-125v125zM125 625h125v-125h-125v125zM250 500h125v-250h-125v250zM125 250h125v-125h-125v125zM0 125h125v-125h-125v125zM375 625h125v-125h-125v125zM500 750h125v-125h-125v125zM375 250h125v-125h-125v125zM500 125h125v-125h-125v125z" />
    <glyph glyph-name="y" unicode="y" 
d="M0 750h125v-250h-125v250zM125 500h125v-250h-125v250zM250 250h125v-375h-125v375zM125 -125h125v-125h-125v125zM375 500h125v-250h-125v250zM500 750h125v-250h-125v250z" />
    <glyph glyph-name="z" unicode="z" 
d="M0 750h625v-125h-625v125zM0 125h625v-125h-625v125zM125 250h125v-125h-125v125zM250 500h125v-250h-125v250zM375 625h125v-125h-125v125z" />
    <glyph glyph-name="braceleft" unicode="{" horiz-adv-x="500" 
d="M250 1000h125v-125h-125v125zM125 875h125v-375h-125v375zM0 500h125v-125h-125v125zM125 375h125v-500h-125v500zM250 -125h125v-125h-125v125z" />
    <glyph glyph-name="bar" unicode="|" horiz-adv-x="250" 
d="M0 1000h125v-1250h-125v1250z" />
    <glyph glyph-name="braceright" unicode="}" horiz-adv-x="500" 
d="M125 1000h-125v-125h125v125zM250 875h-125v-375h125v375zM375 500h-125v-125h125v125zM250 375h-125v-500h125v500zM125 -125h-125v-125h125v125z" />
    <glyph glyph-name="asciitilde" unicode="~" 
d="M0 625h125v-250h-125v250zM125 625h250v-125h-250v125zM250 500h250v-125h-250v125zM500 625h125v-125h-125v125z" />
    <glyph glyph-name="nonbreakingspace" unicode="&#xa0;" 
d="M125 875h125v-125h-125v125zM375 875h125v-125h-125v125zM125 -250v125h375v125h-375v125h-125v500h125v-500h375v500h125v-750h-125v-125h-375z" />
    <glyph glyph-name="exclamdown" unicode="&#xa1;" horiz-adv-x="1250" 
d="M130 125h370v625h-370v-625zM0 125v625h125v125h1000v-125h-500v-250h375v-125h-375v-250h500v-125h-1000v125h-125z" />
    <glyph glyph-name="cent" unicode="&#xa2;" horiz-adv-x="625" 
d="M375 750v-125h125v-125h-375v-250h375v-125h-125v-125h-125v125h-125v125h-125v250h125v125h125v125h125z" />
    <glyph glyph-name="sterling" unicode="&#xa3;" 
d="M500 250h125v-125h-125v-125h-500v750h125v125h250v-125h125v-125h-125v125h-250v-250h250v-125h-250v-250h375v125z" />
    <glyph glyph-name="currency" unicode="&#xa4;" horiz-adv-x="250" 
d="M0 0v875h125v-875h-125zM-125 1125h125v-125h-125v125zM125 1125h125v-125h-125v125z" />
    <glyph glyph-name="yen" unicode="&#xa5;" horiz-adv-x="1250" 
d="M130 125h365v124h-365v-124zM500 0h-376v124h-124v126h125v125h375v125h-375v125h375v-125h124v125h377v-125h124v-250h-495v-125h370v-125h-375v125h-125v-125zM630 500v-125h365v125h-365z" />
    <glyph glyph-name="brokenbar" unicode="&#xa6;" horiz-adv-x="375" 
 />
    <glyph glyph-name="section" unicode="&#xa7;" horiz-adv-x="500" 
d="M130 500v-125h115v125h-115zM0 0v125h250v125h-125v125h-125v125h125v125h-125v125h125v125h250v-125h-250v-125h125v-125h125v-125h-125v-125h125v-125h-125v-125h-250z" />
    <glyph glyph-name="dieresis" unicode="&#xa8;" horiz-adv-x="625" 
d="M125 875h125v-125h-125v125zM375 875h125v-125h-125v125z" />
    <glyph glyph-name="copyright" unicode="&#xa9;" horiz-adv-x="1000" 
d="M750 124v-124h-625v124h-125v626h125v125h625v-125h125v-626h-125zM745 749h-615v-624h615v624zM250 625h375v-125h-250v-125h250v-125h-375v375z" />
    <glyph glyph-name="ordfeminine" unicode="&#xaa;" 
d="M500 500h125v-125h-125v-125h-125v125h125v125h-125v125h125v-125zM125 500h125v-125h-125v-125h-125v125h125v125h-125v125h125v-125z" />
    <glyph glyph-name="guillemotleft" unicode="&#xab;" horiz-adv-x="375" 
d="M250 750v-125h-125v-124h125v-125h-250v249h125v125h125z" />
    <glyph glyph-name="logicalnot" unicode="&#xac;" horiz-adv-x="1250" 
d="M630 500v-125h365v125h-365zM495 125v375h-365v-375h365zM125 0v125h-125v375h125v125h375v-125h125v125h375v-125h125v-250h-500v-125h375v-125h-375v125h-125v-125h-375z" />
    <glyph glyph-name="minus" unicode="&#xad;" 
d="M625 875v-125h-125v-750h-125v750h-125v-750h-125v750h-125v125h625z" />
    <glyph glyph-name="minus" unicode="&#x2212;" 
d="M625 875v-125h-125v-750h-125v750h-125v-750h-125v750h-125v125h625z" />
    <glyph glyph-name="registered" unicode="&#xae;" horiz-adv-x="1000" 
d="M750 124v-124h-625v124h-125v626h125v125h625v-125h125v-626h-125zM745 749h-615v-624h615v624zM625 250h-125v125h-125v-125h-125v375h375v-125h-125v-125h125v-125z" />
    <glyph glyph-name="macron" unicode="&#xaf;" horiz-adv-x="375" 
 />
    <glyph glyph-name="macron" unicode="&#x2c9;" horiz-adv-x="375" 
 />
    <glyph glyph-name="degree" unicode="&#xb0;" horiz-adv-x="500" 
d="M130 623h115v125h-115v-125zM125 748v125h125v-125h125v-125h-125v-125h-125v125h-125v125h125z" />
    <glyph glyph-name="plusminus" unicode="&#xb1;" 
d="M500 125h-125v-125h-250v-250h-125v875h125v-500h250v500h125v-500h125v-125h-125v125z" />
    <glyph glyph-name="twosuperior" unicode="&#xb2;" 
d="M500 250v-125h125v-125h-250v250h124v499h-374v-499h125v-250h-250v125h125v125h-125v500h125v125h374v-125h126v-500h-125z" />
    <glyph glyph-name="threesuperior" unicode="&#xb3;" 
d="M374 750h250v-125h-125v-124h-125v-250h-124v-249h-125v249h-125v125h125v-125h125v250h124v249z" />
    <glyph glyph-name="acute" unicode="&#xb4;" horiz-adv-x="500" 
d="M125 750h125v125h125v125h-125v-125h-125v-125z" />
    <glyph glyph-name="mu" unicode="&#xb5;" horiz-adv-x="625" 
d="M370 125v125h-240v-125h240zM130 500v-125h240v125h-240zM375 625v-125h125v-375h-125v-125h-250v125h-125v375h125v125h250z" />
    <glyph glyph-name="mu" unicode="&#x3bc;" horiz-adv-x="625" 
d="M370 125v125h-240v-125h240zM130 500v-125h240v125h-240zM375 625v-125h125v-375h-125v-125h-250v125h-125v375h125v125h250z" />
    <glyph glyph-name="paragraph" unicode="&#xb6;" 
d="M500 500v250h-125v-250h125zM130 500h120v250h-120v-250zM0 750h125v125h500v-875h-125v375h-125v-375h-125v375h-125v125h-125v250z" />
    <glyph glyph-name="periodcentered" unicode="&#xb7;" horiz-adv-x="875" 
d="M625 875h125v-750h-125v-125h-500v125h-125v750h125v-750h500v750zM500 1125h-250v-125h-125v125h125v125h250v-125h125v-125h-125v125z" />
    <glyph glyph-name="periodcentered" unicode="&#x2219;" horiz-adv-x="875" 
d="M625 875h125v-750h-125v-125h-500v125h-125v750h125v-750h500v750zM500 1125h-250v-125h-125v125h125v125h250v-125h125v-125h-125v125z" />
    <glyph glyph-name="cedilla" unicode="&#xb8;" horiz-adv-x="375" 
 />
    <glyph glyph-name="onesuperior" unicode="&#xb9;" horiz-adv-x="500" 
d="M0 -125h125v1000h125v125h125v-125h-125v-1000h-125v-125h-125v125z" />
    <glyph glyph-name="ordmasculine" unicode="&#xba;" 
d="M0 125h125v-125h-125v125zM250 125h125v-125h-125v125zM500 125h125v-125h-125v125z" />
    <glyph glyph-name="guillemotright" unicode="&#xbb;" horiz-adv-x="375" 
d="M0 376v125h125v124h-125v125h250v-249h-125v-125h-125z" />
    <glyph glyph-name="onequarter" unicode="&#xbc;" 
d="M255 625v-249h-125v-125h365v125h-125v249h-115zM375 875v-250h125v-249h125v-250h-625v250h125v249h125v250h125z" />
    <glyph glyph-name="onehalf" unicode="&#xbd;" 
d="M499 750h125v-125h-125v-124h-125v124h-249v-124h-125v124h125v125h249v-125h125v125zM499 251v-125h-125v125h-249v-125h-125v125h125v125h249v-125h125v125h125v-125h-125z" />
    <glyph glyph-name="threequarters" unicode="&#xbe;" 
d="M369 251v125h126v125h-125v124h-115v-124h-125v-125h124v-125h115zM250 126v125h-125v125h-125v125h125v124h125v125h125v-125h125v-124h124v-125h-124v-125h-125v-125h-125z" />
    <glyph glyph-name="questiondown" unicode="&#xbf;" 
d="M500 1000h125v-125h-125v-125h-125v125h-125v-125h-125v125h125v125h125v-125h125v125zM125 495v-365h375v365h-375zM500 625v-125h125v-375h-125v-125h-375v125h-125v375h125v125h375z" />
    <glyph glyph-name="Agrave" unicode="&#xc0;" horiz-adv-x="1000" 
d="M250 1125h125v-125h-125v125zM500 1125h125v-125h-125v125zM375 500h-125v125h-125v127h125v-127h125v-125zM625 752h125v-127h-125v-125h-125v125h125v127zM375 0v500h125v-500h-125zM0 875h125v-123h-125v123zM750 875h125v-123h-125v123z" />
    <glyph glyph-name="Aacute" unicode="&#xc1;" horiz-adv-x="875" 
d="M0 250h125v-125h500v250h-500v125h-125v250h125v125h500v-125h125v-125h-125v125h-500v-250h500v-125h125v-250h-125v-125h-500v125h-125v125zM250 1125h250v125h125v-125h-125v-125h-250v125h-125v125h125v-125z" />
    <glyph glyph-name="Acircumflex" unicode="&#xc2;" horiz-adv-x="500" 
d="M0 750h375v-125h-375v125z" />
    <glyph glyph-name="Atilde" unicode="&#xc3;" horiz-adv-x="625" 
d="M125 370v-240h250v240h-250zM375 500v-125h125v-250h-125v-125h-250v125h-125v250h125v125h250z" />
    <glyph glyph-name="Adieresis" unicode="&#xc4;" horiz-adv-x="875" 
d="M125 1125h125v-125h-125v125zM500 1125h125v-125h-125v125zM125 745v-245h500v245h-500zM625 875v-125h125v-750h-125v375h-500v-375h-125v750h125v125h500z" />
    <glyph glyph-name="Aring" unicode="&#xc5;" horiz-adv-x="875" 
d="M125 745v-245h500v245h-500zM255 1000h240v125h-240v-125zM250 1125v125h250v-125h125v-125h-125v-125h125v-125h125v-750h-125v375h-500v-375h-125v750h125v125h125v125h-125v125h125z" />
    <glyph glyph-name="AE" unicode="&#xc6;" 
d="M500 875v-125h125v-625h-125v-125h-375v125h-125v625h125v125h375zM380 505v-125h-130v-125h-125v-125h375v375h-120zM245 505h130v125h125v115h-375v-365h120v125z" />
    <glyph glyph-name="Ccedilla" unicode="&#xc7;" horiz-adv-x="875" 
d="M125 -250v125h250v125h-250v125h-125v625h125v125h500v-125h125v-125h-125v125h-500v-625h500v125h125v-125h-125v-125h-125v-125h-125v-125h-250z" />
    <glyph glyph-name="Egrave" unicode="&#xc8;" horiz-adv-x="500" 
d="M125 2v374h125v-374h-125zM125 875h125v-374h-125v374z" />
    <glyph glyph-name="Eacute" unicode="&#xc9;" horiz-adv-x="875" 
d="M250 1000h125v125h125v125h-125v-125h-125v-125zM750 750h-625v-250h500v-125h-500v-250h625v-125h-750v875h750v-125z" />
    <glyph glyph-name="Ecircumflex" unicode="&#xca;" horiz-adv-x="500" 
d="M0 -250v125h250v125h-125v125h125v-125h126v-125h-126v-125h-250z" />
    <glyph glyph-name="Edieresis" unicode="&#xcb;" horiz-adv-x="625" 
d="M500 500h-375v-125h250v-125h125v-125h-125v-125h-375v125h375v125h-250v125h-125v125h125v125h375v-125zM250 875h125v125h125v-125h-125v-125h-125v125h-125v125h125v-125z" />
    <glyph glyph-name="Igrave" unicode="&#xcc;" 
d="M250 750h125v125h125v125h-125v-125h-125v-125zM125 -250v125h375v125h-375v125h-125v500h125v-500h375v500h125v-750h-125v-125h-375z" />
    <glyph glyph-name="Iacute" unicode="&#xcd;" horiz-adv-x="1000" 
d="M750 125v-125h-625v374h-125v125h125v376h625v-125h125v-625h-125zM745 750h-495v-251h125v-125h-125v-249h495v625z" />
    <glyph glyph-name="Icircumflex" unicode="&#xce;" 
d="M500 125v-125h-376v125h-124v249h124v126h126v124h-250v125h250v124h124v-124h251v-125h-124v-124h124v-375h-125zM495 125v375h-240v-126h-125v-249h365z" />
    <glyph glyph-name="Idieresis" unicode="&#xcf;" horiz-adv-x="1000" 
d="M375 1000h125v125h125v125h-125v-125h-125v-125zM375 500h-125v125h-125v127h125v-127h125v-125zM625 752h125v-127h-125v-125h-125v125h125v127zM375 0v500h125v-500h-125zM0 875h125v-123h-125v123zM750 875h125v-123h-125v123z" />
    <glyph glyph-name="Eth" unicode="&#xd0;" 
d="M625 500h-250v-125h250v-125h-375v-125h-125v125h-125v125h250v125h-250v125h375v125h125v-125h125v-125z" />
    <glyph glyph-name="Ntilde" unicode="&#xd1;" horiz-adv-x="875" 
d="M500 1250h125v-125h-125v-125h-125v125h-125v-125h-125v125h125v125h125v-125h125v125zM375 500h-125v125h-125v-625h-125v875h125v-125h125v-125h125v-125h125v-125h125v500h125v-875h-125v250h-125v125h-125v125z" />
    <glyph glyph-name="Ograve" unicode="&#xd2;" 
d="M0 750h125v-125h125v-125h125v125h125v125h125v-125h-125v-125h-125v-125h125v-125h125v-125h-125v125h-125v125h-125v-125h-125v-125h-125v125h125v125h125v125h-125v125h-125v125z" />
    <glyph glyph-name="Oacute" unicode="&#xd3;" horiz-adv-x="625" 
d="M375 376v-126h-250v-248h-125v873h125v-250h249v-124h126v-125h-125zM370 501h-245v-125h245v125z" />
    <glyph glyph-name="Ocircumflex" unicode="&#xd4;" horiz-adv-x="625" 
d="M376 251v-126h-251v-248h-125v873h125v-250h251v-124h124v-125h-124zM370 376h-245v-125h245v125z" />
    <glyph glyph-name="Otilde" unicode="&#xd5;" horiz-adv-x="375" 
d="M125 500v125h125v-125h-125v-125h125v-125h-125v125h-125v125h125z" />
    <glyph glyph-name="Odieresis" unicode="&#xd6;" horiz-adv-x="875" 
d="M125 1125h125v-125h-125v125zM500 1125h125v-125h-125v125zM125 745v-615h500v615h-500zM625 875v-125h125v-625h-125v-125h-500v125h-125v625h125v125h500z" />
    <glyph glyph-name="multiply" unicode="&#xd7;" 
d="M625 625v-125h-125v-500h-125v500h-125v-500h-125v500h-125v125h625z" />
    <glyph glyph-name="Oslash" unicode="&#xd8;" 
d="M0 125h250v250h-250v125h250v250h125v-250h250v-125h-250v-250h250v-125h-625v125z" />
    <glyph glyph-name="Ugrave" unicode="&#xd9;" horiz-adv-x="500" 
d="M375 375h-125v-125h-250v125h250v125h-250v125h250v125h-250v125h250v-125h125v-125h-125v-125h125v-125z" />
    <glyph glyph-name="Uacute" unicode="&#xda;" horiz-adv-x="375" 
d="M250 250h-125v375h-125v125h125v125h125v-625z" />
    <glyph glyph-name="Ucircumflex" unicode="&#xdb;" horiz-adv-x="625" 
d="M125 500h125v125h125v125h-250v125h250v-125h125v-125h-125v-125h-125v-125h250v-125h-500v125h125v125zM0 750h125v-125h-125v125z" />
    <glyph glyph-name="Udieresis" unicode="&#xdc;" horiz-adv-x="875" 
d="M125 1125h125v-125h-125v125zM500 1125h125v-125h-125v125zM625 875h125v-750h-125v-125h-500v125h-125v750h125v-750h500v750z" />
    <glyph glyph-name="Yacute" unicode="&#xdd;" horiz-adv-x="500" 
d="M250 875h125v-125h-125v-125h-125v-125h125v-125h125v-125h-125v125h-125v125h-125v125h125v125h125v125zM0 125h375v-125h-375v125z" />
    <glyph glyph-name="Thorn" unicode="&#xde;" 
d="M500 125v-125h-376v125h-124v249h124v126h126v124h125v125h-125v124h124v-124h127v-249h124v-375h-125zM495 125v375h-240v-126h-125v-249h365z" />
    <glyph glyph-name="germandbls" unicode="&#xdf;" 
d="M250 0v125h250v250h-125v125h125v250h-250v-125h-125v-750h-125v750h125v125h125v125h250v-125h125v-250h-125v-125h125v-250h-125v-125h-250z" />
    <glyph glyph-name="agrave" unicode="&#xe0;" 
d="M375 750h-125v125h-125v125h125v-125h125v-125zM130 125h370v375h-370v-375zM125 500v125h500v-625h-500v125h-125v375h125z" />
    <glyph glyph-name="aacute" unicode="&#xe1;" 
d="M250 750h125v125h125v125h-125v-125h-125v-125zM130 125h370v375h-370v-375zM125 500v125h500v-625h-500v125h-125v375h125z" />
    <glyph glyph-name="acircumflex" unicode="&#xe2;" 
d="M130 125h370v375h-370v-375zM125 500v125h500v-625h-500v125h-125v375h125zM375 875h-125v-125h-125v125h125v125h125v-125h125v-125h-125v125z" />
    <glyph glyph-name="atilde" unicode="&#xe3;" 
d="M500 1000h125v-125h-125v-125h-125v125h-125v-125h-125v125h125v125h125v-125h125v125zM130 125h370v375h-370v-375zM125 500v125h500v-625h-500v125h-125v375h125z" />
    <glyph glyph-name="adieresis" unicode="&#xe4;" 
d="M125 875h125v-125h-125v125zM375 875h125v-125h-125v125zM130 125h370v375h-370v-375zM125 500v125h500v-625h-500v125h-125v375h125z" />
    <glyph glyph-name="aring" unicode="&#xe5;" 
d="M130 125h370v375h-370v-375zM255 750h240v125h-240v-125zM250 875v125h250v-125h125v-125h-125v-125h125v-625h-500v125h-125v375h125v125h125v125h-125v125h125z" />
    <glyph glyph-name="ae" unicode="&#xe6;" horiz-adv-x="875" 
d="M500 1000h-125v125h-125v125h125v-125h125v-125zM125 745v-245h500v245h-500zM625 875v-125h125v-750h-125v375h-500v-375h-125v750h125v125h500z" />
    <glyph glyph-name="ccedilla" unicode="&#xe7;" 
d="M125 -125h125v125h-125v125h-125v375h125v125h375v-125h125v-125h-125v125h-375v-375h375v125h125v-125h-125v-125h-125v-125h-125v-125h-125v125z" />
    <glyph glyph-name="egrave" unicode="&#xe8;" 
d="M375 750h-125v125h-125v125h125v-125h125v-125zM125 500v125h375v-125h125v-250h-500v-125h375v-125h-375v125h-125v375h125zM500 495h-375v-120h375v120z" />
    <glyph glyph-name="eacute" unicode="&#xe9;" 
d="M250 750h125v125h125v125h-125v-125h-125v-125zM125 500v125h375v-125h125v-250h-500v-125h375v-125h-375v125h-125v375h125zM500 495h-375v-120h375v120z" />
    <glyph glyph-name="ecircumflex" unicode="&#xea;" 
d="M125 500v125h375v-125h125v-250h-500v-125h375v-125h-375v125h-125v375h125zM500 495h-375v-120h375v120zM375 875h-125v-125h-125v125h125v125h125v-125h125v-125h-125v125z" />
    <glyph glyph-name="edieresis" unicode="&#xeb;" 
d="M0 875h125v-125h-125v125zM375 875h125v-125h-125v125zM125 500v125h375v-125h125v-250h-500v-125h375v-125h-375v125h-125v375h125zM500 495h-375v-120h375v120z" />
    <glyph glyph-name="igrave" unicode="&#xec;" horiz-adv-x="250" 
d="M0 0v625h125v-625h-125zM125 750h-125v125h-125v125h125v-125h125v-125z" />
    <glyph glyph-name="iacute" unicode="&#xed;" horiz-adv-x="250" 
d="M0 0v625h125v-625h-125zM0 750h125v125h125v125h-125v-125h-125v-125z" />
    <glyph glyph-name="icircumflex" unicode="&#xee;" horiz-adv-x="250" 
d="M0 0v625h125v-625h-125zM250 750h-125v125h-125v-125h-125v125h125v125h125v-125h125v-125z" />
    <glyph glyph-name="idieresis" unicode="&#xef;" horiz-adv-x="250" 
d="M0 0v625h125v-625h-125zM-125 875h125v-125h-125v125zM125 875h125v-125h-125v125z" />
    <glyph glyph-name="eth" unicode="&#xf0;" 
d="M130 250h115v125h-115v-125zM496 250v125h-118v-125h118zM500 375h125v-125h-125v-125h-125v125h-125v-125h-125v125h-125v125h125v125h125v-125h125v125h125v-125z" />
    <glyph glyph-name="ntilde" unicode="&#xf1;" 
d="M375 1000h125v-125h-125v-125h-125v125h-125v-125h-125v125h125v125h125v-125h125v125zM0 625h500v-125h125v-500h-125v500h-375v-500h-125v625z" />
    <glyph glyph-name="ograve" unicode="&#xf2;" 
d="M375 750h-125v125h-125v125h125v-125h125v-125zM125 495v-365h375v365h-375zM500 625v-125h125v-375h-125v-125h-375v125h-125v375h125v125h375z" />
    <glyph glyph-name="oacute" unicode="&#xf3;" 
d="M250 750h125v125h125v125h-125v-125h-125v-125zM125 495v-365h375v365h-375zM500 625v-125h125v-375h-125v-125h-375v125h-125v375h125v125h375z" />
    <glyph glyph-name="ocircumflex" unicode="&#xf4;" 
d="M125 495v-365h375v365h-375zM500 625v-125h125v-375h-125v-125h-375v125h-125v375h125v125h375zM375 875h-125v-125h-125v125h125v125h125v-125h125v-125h-125v125z" />
    <glyph glyph-name="otilde" unicode="&#xf5;" 
d="M500 1000h125v-125h-125v-125h-125v125h-125v-125h-125v125h125v125h125v-125h125v125zM125 495v-365h375v365h-375zM500 625v-125h125v-375h-125v-125h-375v125h-125v375h125v125h375z" />
    <glyph glyph-name="odieresis" unicode="&#xf6;" 
d="M125 875h125v-125h-125v125zM375 875h125v-125h-125v125zM125 495v-365h375v365h-375zM500 625v-125h125v-375h-125v-125h-375v125h-125v375h125v125h375z" />
    <glyph glyph-name="divide" unicode="&#xf7;" horiz-adv-x="875" 
d="M250 1000h125v125h125v125h-125v-125h-125v-125zM125 745v-245h500v245h-500zM625 875v-125h125v-750h-125v375h-500v-375h-125v750h125v125h500z" />
    <glyph glyph-name="oslash" unicode="&#xf8;" horiz-adv-x="875" 
d="M500 1250h125v-125h-125v-125h-125v125h-125v-125h-125v125h125v125h125v-125h125v125zM125 745v-245h500v245h-500zM625 875v-125h125v-750h-125v375h-500v-375h-125v750h125v125h500z" />
    <glyph glyph-name="ugrave" unicode="&#xf9;" 
d="M375 750h-125v125h-125v125h125v-125h125v-125zM500 625h125v-625h-500v125h-125v500h125v-500h375v500z" />
    <glyph glyph-name="uacute" unicode="&#xfa;" 
d="M250 750h125v125h125v125h-125v-125h-125v-125zM500 625h125v-625h-500v125h-125v500h125v-500h375v500z" />
    <glyph glyph-name="ucircumflex" unicode="&#xfb;" 
d="M500 625h125v-625h-500v125h-125v500h125v-500h375v500zM375 875h-125v-125h-125v125h125v125h125v-125h125v-125h-125v125z" />
    <glyph glyph-name="udieresis" unicode="&#xfc;" 
d="M125 875h125v-125h-125v125zM375 875h125v-125h-125v125zM500 625h125v-625h-500v125h-125v500h125v-500h375v500z" />
    <glyph glyph-name="yacute" unicode="&#xfd;" horiz-adv-x="500" 
d="M125 875v-125h125v-125h125v-125h-125v-125h-125v-125h-125v125h125v125h125v125h-125v125h-125v125h125zM375 125v-125h-375v125h375z" />
    <glyph glyph-name="thorn" unicode="&#xfe;" 
d="M625 625h-125v125h-250v-125h125v-125h125v-125h-125v-125h-125v-125h250v125h125v-250h-625v125h125v125h125v125h125v125h-125v125h-125v125h-125v125h625v-250z" />
    <glyph glyph-name="ydieresis" unicode="&#xff;" horiz-adv-x="875" 
d="M500 1000h-125v125h-125v125h125v-125h125v-125zM750 750h-625v-250h500v-125h-500v-250h625v-125h-750v875h750v-125z" />
    <glyph glyph-name="Cacute" unicode="&#x106;" horiz-adv-x="375" 
d="M125 501h125v-125h-125v125z" />
    <glyph glyph-name="cacute" unicode="&#x107;" horiz-adv-x="500" 
d="M130 250h115v125h-115v-125zM125 375v125h125v-125h125v-125h-125v-125h-125v125h-125v125h125z" />
    <glyph glyph-name="Ccaron" unicode="&#x10c;" horiz-adv-x="625" 
d="M375 875h125v-125h-125v-125h-125v125h-125v-125h-125v125h125v125h125v-125h125v125z" />
    <glyph glyph-name="ccaron" unicode="&#x10d;" horiz-adv-x="500" 
d="M0 250h125v-250h125v125h124v-125h-124v-126h-125v126h-125v250z" />
    <glyph glyph-name="dcroat" unicode="&#x111;" horiz-adv-x="625" 
d="M250 875v-125h125v125h-125zM500 875v-125h-125v-125h-125v125h-125v125h375z" />
    <glyph glyph-name="Gbreve" unicode="&#x11e;" 
d="M375 875v-125h-126l1 -249h374v-499h-127v374h-248v-374h-124v374h-125v125h125v249h124v125h126zM500 875h125v-125h-125v125z" />
    <glyph glyph-name="gbreve" unicode="&#x11f;" 
d="M625 875v-875h-126v376h-250v-376h-124v376h-125v125h125v249h125v125h375zM255 750v-249h245v249h-245z" />
    <glyph glyph-name="Idotaccent" unicode="&#x130;" horiz-adv-x="3000" 
d="M1750 375h625v-375h-125v250h-125v-250h-125v250h-125v-250h-125v375zM1500 375h125v-375h-125v375zM1000 375h375v-375h-125v250h-125v-250h-125v375zM750 375h125v-375h-125v375zM0 375h625v-375h-125v250h-125v-250h-125v250h-125v-250h-125v375zM2875 0h-375v375h125
v-250h250v-125z" />
    <glyph glyph-name="dotlessi" unicode="&#x131;" horiz-adv-x="1250" 
d="M375 250v-250h-125v250h-125v375h-125v125h125v125h125v-625h125v250h125v250h125v250h125v-250h-125v-250h125v-125h-125v125h-125v-250h-125zM750 250h125v125h125v125h-250v125h250v-125h125v-125h-125v-125h-125v-125h250v-125h-500v125h125v125z" />
    <glyph glyph-name="Lslash" unicode="&#x141;" 
 />
    <glyph glyph-name="lslash" unicode="&#x142;" 
 />
    <glyph glyph-name="OE" unicode="&#x152;" horiz-adv-x="375" 
d="M125 500h125v-125h-125v-125h-125v125h125v125h-125v125h125v-125z" />
    <glyph glyph-name="oe" unicode="&#x153;" horiz-adv-x="500" 
d="M374 501h-124v-125h124v-125h-124v-249h-129v249h-121v125h121v125h-121v124h121v250h129v-250h124v-124z" />
    <glyph glyph-name="Scedilla" unicode="&#x15e;" horiz-adv-x="250" 
d="M0 0v375h125v-375h-125z" />
    <glyph glyph-name="scedilla" unicode="&#x15f;" 
d="M250 875v-125h250v125h-250zM625 875v-125h-125v-125h-250v125h-125v125h500z" />
    <glyph glyph-name="Scaron" unicode="&#x160;" horiz-adv-x="625" 
 />
    <glyph glyph-name="scaron" unicode="&#x161;" horiz-adv-x="625" 
 />
    <glyph glyph-name="Ydieresis" unicode="&#x178;" horiz-adv-x="250" 
d="M0 0v875h125v-875h-125zM0 1000h125v125h125v125h-125v-125h-125v-125z" />
    <glyph glyph-name="Zcaron" unicode="&#x17d;" horiz-adv-x="375" 
 />
    <glyph glyph-name="zcaron" unicode="&#x17e;" horiz-adv-x="375" 
 />
    <glyph glyph-name="florin" unicode="&#x192;" horiz-adv-x="625" 
d="M0 500h500v-125h-500v125z" />
    <glyph glyph-name="circumflex" unicode="&#x2c6;" horiz-adv-x="1250" 
d="M750 370v-120h125v120h-125zM1125 250v-125h-125v-125h-125v125h-250v250h125v125h125v125h125v-375h125zM375 250v-250h-125v250h125v250h125v250h125v250h125v-250h-125v-250h-125v-250h-125zM250 250v625h-125v-125h-125v-125h125v-375h125z" />
    <glyph glyph-name="caron" unicode="&#x2c7;" 
d="M250 875h125v125h125v-125h-125v-125h-125v125h-125v125h125v-125zM500 500v-125h-125v-125h-125v-125h375v-125h-625v125h125v125h125v125h125v125h-375v125h625v-125h-125z" />
    <glyph glyph-name="breve" unicode="&#x2d8;" horiz-adv-x="875" 
d="M250 125h500v-125h-625v375h-125v125h125v375h125v-250h125v-124h-125v-376z" />
    <glyph glyph-name="dotaccent" unicode="&#x2d9;" horiz-adv-x="500" 
d="M250 625h124v-124h-124v-499h-125v374h-125v125h125v374h125v-250z" />
    <glyph glyph-name="ring" unicode="&#x2da;" horiz-adv-x="375" 
 />
    <glyph glyph-name="ogonek" unicode="&#x2db;" horiz-adv-x="1000" 
d="M375 1125h125v125h125v-125h-125v-125h-125v125h-125v125h125v-125zM875 875v-125h-125v-125h-125v-125h-125v-125h-125v-125h-125v-125h625v-125h-875v125h125v125h125v125h125v125h125v125h125v125h-625v125h875z" />
    <glyph glyph-name="tilde" unicode="&#x2dc;" horiz-adv-x="1375" 
d="M375 375h-125v-125h-250v125h250v125h-250v125h250v125h-250v125h250v-125h125v-125h-125v-125h125v-125zM500 250v-250h-125v250h125v250h125v250h125v250h125v-250h-125v-250h-125v-250h-125zM875 370v-120h125v120h-125zM1250 250v-125h-125v-125h-125v125h-250v250
h125v125h125v125h125v-375h125z" />
    <glyph glyph-name="hungarumlaut" unicode="&#x2dd;" horiz-adv-x="375" 
 />
    <glyph glyph-name="Delta" unicode="&#x394;" horiz-adv-x="625" 
d="M250 500v125h-125v-125h-125v125h125v250h125v-250h125v250h125v-250h-125v-125h-125z" />
    <glyph glyph-name="Delta" unicode="&#x2206;" horiz-adv-x="625" 
d="M250 500v125h-125v-125h-125v125h125v250h125v-250h125v250h125v-250h-125v-125h-125z" />
    <glyph glyph-name="Omega" unicode="&#x3a9;" horiz-adv-x="375" 
 />
    <glyph glyph-name="Omega" unicode="&#x2126;" horiz-adv-x="375" 
 />
    <glyph glyph-name="pi" unicode="&#x3c0;" 
d="M375 1000h125v-125h-125v-250h125v-125h-125v-500h-125v-125h-125v125h125v500h-125v125h125v250h125v125z" />
    <glyph glyph-name="endash" unicode="&#x2013;" horiz-adv-x="500" 
d="M125 501h125v-125h-125v125z" />
    <glyph glyph-name="emdash" unicode="&#x2014;" horiz-adv-x="375" 
d="M-125 -250v125h125v250h125v-250h-125v-125h-125z" />
    <glyph glyph-name="quoteleft" unicode="&#x2018;" horiz-adv-x="875" 
d="M125 745v-245h500v245h-500zM625 875v-125h125v-750h-125v375h-500v-375h-125v750h125v125h500zM500 1125h-250v-125h-125v125h125v125h250v-125h125v-125h-125v125z" />
    <glyph glyph-name="quoteright" unicode="&#x2019;" horiz-adv-x="875" 
d="M500 1125h-250v-125h-125v125h125v125h250v-125h125v-125h-125v125zM750 750h-625v-250h500v-125h-500v-250h625v-125h-750v875h750v-125z" />
    <glyph glyph-name="quotesinglbase" unicode="&#x201a;" horiz-adv-x="875" 
d="M500 1000h-125v125h-125v125h125v-125h125v-125zM625 875h125v-750h-125v-125h-500v125h-125v750h125v-750h500v750z" />
    <glyph glyph-name="quotedblleft" unicode="&#x201c;" horiz-adv-x="500" 
d="M125 -250v125h-125v-125h-125v125h125v250h125v-250h125v250h125v-250h-125v-125h-125z" />
    <glyph glyph-name="quotedblright" unicode="&#x201d;" horiz-adv-x="1250" 
d="M130 625h115v125h-115v-125zM125 750v125h125v-125h125v-125h-125v-125h-125v125h-125v125h125zM0 0v125h125v125h125v125h125v125h125v125h125v125h125v125h125v-125h-125v-125h-125v-125h-125v-125h-125v-125h-125v-125h-125v-125h-125zM630 125h115v125h-115v-125z
M996 125v125h-118v-125h118zM1000 250h125v-125h-125v-125h-125v125h-125v-125h-125v125h-125v125h125v125h125v-125h125v125h125v-125z" />
    <glyph glyph-name="quotedblbase" unicode="&#x201e;" horiz-adv-x="625" 
d="M375 625v125h-125v-125h125zM125 625v125h125v125h125v-125h125v-125h-375z" />
    <glyph glyph-name="dagger" unicode="&#x2020;" horiz-adv-x="500" 
d="M375 625v-125h-125v-375h-125v375h-125v125h125v125h125v-125h125z" />
    <glyph glyph-name="daggerdbl" unicode="&#x2021;" horiz-adv-x="875" 
d="M250 1000h125v125h125v125h-125v-125h-125v-125zM625 875h125v-750h-125v-125h-500v125h-125v750h125v-750h500v750z" />
    <glyph glyph-name="bullet" unicode="&#x2022;" horiz-adv-x="500" 
d="M375 500v-125h-125v-125h-125v125h-125v125h125v125h125v-125h125z" />
    <glyph glyph-name="ellipsis" unicode="&#x2026;" 
d="M0 501h624v-125h-624v125zM250 126v125h124v-125h-124zM374 750v-125h-124v125h124z" />
    <glyph glyph-name="perthousand" unicode="&#x2030;" horiz-adv-x="625" 
d="M375 875h125v-125h-125v-125h-125v125h-125v-125h-125v125h125v125h125v-125h125v125z" />
    <glyph glyph-name="guilsinglleft" unicode="&#x2039;" horiz-adv-x="250" 
d="M0 0v875h125v-875h-125zM125 1000h-125v125h-125v125h125v-125h125v-125z" />
    <glyph glyph-name="guilsinglright" unicode="&#x203a;" horiz-adv-x="875" 
d="M375 1000h125v125h125v125h-125v-125h-125v-125zM125 745v-615h500v615h-500zM625 875v-125h125v-625h-125v-125h-500v125h-125v625h125v125h500z" />
    <glyph glyph-name="fraction" unicode="&#x2044;" horiz-adv-x="250" 
d="M0 0v875h125v-875h-125zM250 1000h-125v125h-125v-125h-125v125h125v125h125v-125h125v-125z" />
    <glyph glyph-name="franc" unicode="&#x20a3;" horiz-adv-x="625" 
d="M125 250v-250h-125v250h125v250h125v250h125v250h125v-250h-125v-250h-125v-250h-125z" />
    <glyph glyph-name="trademark" unicode="&#x2122;" horiz-adv-x="1125" 
d="M750 875h125v-125h125v-250h-125v250h-125v-250h-125v250h-125v-250h-125v250h-125v-250h-125v250h-125v125h375v-125h125v125h125v-125h125v125z" />
    <glyph glyph-name="partialdiff" unicode="&#x2202;" 
d="M375 875v-125h-125v125h125zM250 500v-125h-125v-250h375v125h125v-125h-125v-125h-375v125h-125v250h125v125h125v125h125v-125h-125z" />
    <glyph glyph-name="product" unicode="&#x220f;" 
d="M0 500h625v-375h-125v250h-500v125z" />
    <glyph glyph-name="summation" unicode="&#x2211;" horiz-adv-x="500" 
d="M125 875h125v-125h-125v125zM125 0v625h125v-625h-125z" />
    <glyph glyph-name="radical" unicode="&#x221a;" horiz-adv-x="500" 
d="M0 500h375v-125h-375v125z" />
    <glyph glyph-name="infinity" unicode="&#x221e;" 
d="M625 875v-250h-125v-125h125v-125h-250v-125h250v-125h-250v-125h-124v125h-251v125h251v125h-251v125h125v125h-125v250h125v-250h126v-125h124v125h125v250h125z" />
    <glyph glyph-name="integral" unicode="&#x222b;" 
d="M125 500v125h125v-125h-125v-125h125v-125h-125v125h-125v125h125zM500 500v125h125v-125h-125v-125h125v-125h-125v125h-125v125h125z" />
    <glyph glyph-name="approxequal" unicode="&#x2248;" horiz-adv-x="625" 
d="M250 875v-125h125v125h125v-125h-125v-250h-125v250h-125v-250h-125v250h125v125h125z" />
    <glyph glyph-name="approxequal" unicode="&#x22f2;" horiz-adv-x="625" 
d="M250 875v-125h125v125h125v-125h-125v-250h-125v250h-125v-250h-125v250h125v125h125z" />
    <glyph glyph-name="notequal" unicode="&#x2260;" horiz-adv-x="1250" 
d="M130 750v-250h370v250h-370zM1125 750h-500v-250h375v-125h-375v-250h500v-125h-625v375h-375v-375h-125v750h125v125h1000v-125z" />
    <glyph glyph-name="lessequal" unicode="&#x2264;" 
d="M0 0v125h625v-125h-625zM130 375h371v375h-371v-375zM125 750v125h501v-625h-501v125h-125v375h125z" />
    <glyph glyph-name="greaterequal" unicode="&#x2265;" 
d="M0 0v125h625v-125h-625zM125 745v-365h376v365h-376zM501 875v-125h125v-375h-125v-125h-376v125h-125v375h125v125h376z" />
    <glyph glyph-name="lozenge" unicode="&#x25ca;" horiz-adv-x="875" 
d="M125 1125h125v-125h-125v125zM500 1125h125v-125h-125v125zM750 750h-625v-250h500v-125h-500v-250h625v-125h-750v875h750v-125z" />
    <glyph glyph-name="apple" unicode="&#xf000;" horiz-adv-x="625" 
d="M0 500h500v-125h-500v125z" />
    <glyph glyph-name="fi" unicode="&#xf001;" horiz-adv-x="875" 
d="M125 745v-615h500v615h-500zM625 875v-125h125v-625h-125v-125h-500v125h-125v625h125v125h500zM500 1125h-250v-125h-125v125h125v125h250v-125h125v-125h-125v125z" />
    <glyph glyph-name="fl" unicode="&#xf002;" horiz-adv-x="875" 
d="M500 1000h-125v125h-125v125h125v-125h125v-125zM125 745v-615h500v615h-500zM625 875v-125h125v-625h-125v-125h-500v125h-125v625h125v125h500z" />
    <glyph glyph-name=".null" horiz-adv-x="0" 
 />
    <glyph glyph-name="nonmarkingreturn" horiz-adv-x="375" 
 />
    <glyph glyph-name="glyph256" horiz-adv-x="375" 
 />
    <glyph glyph-name="glyph257" horiz-adv-x="375" 
 />
    <glyph glyph-name="glyph256" horiz-adv-x="375" 
 />
    <glyph glyph-name="glyph257" horiz-adv-x="375" 
 />
    <glyph glyph-name="ch358" horiz-adv-x="375" 
 />
    <glyph glyph-name="ch359" horiz-adv-x="375" 
 />
  </font>
</defs>
</svg>
